<?xml version="1.0" encoding="utf-8"?>
<!-- Generator: Adobe Illustrator 26.5.3, SVG Export Plug-In . SVG Version: 6.00 Build 0)  -->
<svg version="1.1" id="Layer_1" xmlns="http://www.w3.org/2000/svg" xmlns:xlink="http://www.w3.org/1999/xlink" x="0px" y="0px"
	 viewBox="0 0 165.1 165.1" style="enable-background:new 0 0 165.1 165.1;" xml:space="preserve">
<style type="text/css">
	.st0{fill:#233F91;}
	.st1{fill:#FFCC2E;}
	.st2{fill:none;}
	.st3{fill:#FFFFFF;}
	.st4{fill:#6EB7E5;}
</style>
<rect x="-475.4" y="102.7" class="st0" width="355.3" height="237.6"/>
<path class="st1" d="M-718.5-63.4c0,0,28,9,53.4,44.5c25.4,35.5,29.9,40.3,29.9,40.3s-28.4,67.2-109.1,103.5c0,0,31.4-23.9,31-42.6
	s-18.3-25-18.3-55.3S-694.2-29.4-718.5-63.4z"/>
<circle class="st0" cx="-669.6" cy="13.1" r="8.8"/>
<circle class="st0" cx="-654.7" cy="-39.5" r="10.5"/>
<circle class="st0" cx="-669.6" cy="-75.1" r="12.6"/>
<text transform="matrix(0.8185 0 0 1 -1024.7621 9.2418)" style="fill:#6EB7E5;stroke:#FFFFFF;stroke-width:2;stroke-linecap:round;stroke-linejoin:round;stroke-miterlimit:10; font-family:'SoulwayDemoRegular'; font-size:98.2711px;">ortona</text>
<text transform="matrix(1 0 0 1 -1030.6918 122.7448)" class="st0" style="font-family:'SoulwayDemoRegular'; font-size:136.974px;">SUB</text>
<g id="lXfaSd_00000008852645285598096850000017285564909951216771_">
	
		<image style="overflow:visible;" width="1600" height="1600" id="lXfaSd_00000160911573861853732950000007442579818665599408_" xlink:href="20571EB9264C5FAE.jpg"  transform="matrix(0.1284 0 0 0.1284 -1434.9285 -177.8096)">
	</image>
</g>
<path class="st2" d="M-272.7,265.5h-4.6v18.3c0,1.2,0.8,2,1.7,2.7c1,0.8,1.9,1,3,1h2c7.8,0,12.6-4.8,12.4-11.3
	C-258.6,269.3-262.7,265.5-272.7,265.5z"/>
<path class="st2" d="M-261.4,244.7c-0.5-4.8-5.3-7.4-10.1-7.4c-1.9,0-3.3,0.4-4.7,1c-1,0.5-1.1,1.7-1.1,2.6h0v12.8h2.8
	C-266.4,253.8-260.9,251.5-261.4,244.7z"/>
<path class="st2" d="M-261.6,206.1c0,2.8,1.3,4.7,3.2,4.7c2.8,0,4.2-3.6,4.3-11.1c0-0.3-0.1-0.7-0.4-0.9c-0.2-0.2-0.5-0.3-0.8-0.3
	C-259.2,198.8-261.6,201.7-261.6,206.1z"/>
<path class="st2" d="M-417,209.9c0.5,0.3,1.1,0.5,1.7,0.5c0.3,0,0.6,0,0.9-0.1c3-0.8,3.9-4.7,2.6-12v0c-0.9-5.1-2.2-8.2-4-9.3
	c-0.8-0.5-1.7-0.6-2.6-0.4c-3,0.8-3.9,4.7-2.6,12C-420.1,205.7-418.8,208.8-417,209.9z"/>
<path class="st2" d="M-328.8,209.9c0.5,0.3,1.1,0.5,1.7,0.5c0.3,0,0.6,0,0.9-0.1c3-0.8,3.9-4.7,2.6-12v0c-0.9-5.1-2.2-8.2-4-9.3
	c-0.8-0.5-1.7-0.6-2.6-0.4c-3,0.8-3.9,4.7-2.6,12C-331.9,205.7-330.6,208.8-328.8,209.9z"/>
<path class="st3" d="M-179.8,196.3c-18-25.1-37.9-31.5-37.9-31.5c17.2,24.1-9.3,42.6-9.3,64.1c0,21.4,12.7,25.9,13,39.2
	c0.3,13.2-22,30.2-22,30.2c57.2-25.7,77.3-73.3,77.3-73.3S-161.8,221.5-179.8,196.3z M-182.9,225.2c-3.4,0-6.2-2.8-6.2-6.2
	c0-3.4,2.8-6.2,6.2-6.2c3.4,0,6.2,2.8,6.2,6.2C-176.7,222.5-179.5,225.2-182.9,225.2z"/>
<circle class="st3" cx="-172.4" cy="181.8" r="7.5"/>
<ellipse transform="matrix(0.7071 -0.7071 0.7071 0.7071 -164.2715 -83.5155)" class="st3" cx="-182.9" cy="156.5" rx="9" ry="9"/>
<path class="st3" d="M-416.5,216.3c8.1,0,16.7-5.9,16.8-16.8c-0.1-10.9-8.7-16.8-16.8-16.8c-8.1,0-16.7,5.9-16.8,16.8
	C-433.2,210.4-424.6,216.3-416.5,216.3z M-418.5,188.6c0.9-0.2,1.8-0.1,2.6,0.4c1.8,1.1,3.1,4.2,4,9.3v0c1.3,7.3,0.5,11.2-2.6,12
	c-0.3,0.1-0.6,0.1-0.9,0.1c-0.6,0-1.2-0.2-1.7-0.5c-1.8-1.1-3.1-4.2-4-9.3C-422.3,193.3-421.5,189.4-418.5,188.6z"/>
<path class="st3" d="M-372.6,188.1c0-3.1-1.8-5.5-4.1-5.5c-3.1,0-5.5,3.1-6.7,5.9c-0.1,0.3-0.4,0.4-0.7,0.4h-0.1
	c-0.4,0-0.7-0.3-0.7-0.7c-0.3-3.8-1.1-5.7-2.6-5.7c-1.3,0-5.9,1.4-7.4,2.1c-2.7,1.1-3.1,1.8-3.1,2.9c0,1,0.4,1.3,1.2,1.9
	c1.1,0.8,2.7,1.9,2.8,5.7l0,1.6v7c-0.1,2.4-0.2,4-0.5,5c-0.3,1.1-1.1,1.7-1.8,2.2c-0.8,0.6-1.2,0.9-1.2,1.7c0,0.8,0.3,1.5,0.8,2
	c1.8,1.8,6.1,1.8,8.2,1.7l0.5,0l0.5,0c1.8,0,5.5,0,7.1-1.5c0.5-0.5,0.8-1.2,0.8-2c0-0.9-0.4-1.2-1.2-1.8c-0.7-0.4-1.5-1-1.8-2.2
	c-0.1-0.5-0.2-1.1-0.2-1.7l0-9.6c0-3.5,1.5-5,3-5c0.7,0,1.3,0.2,1.9,0.4c0.5,0.2,1,0.3,1.5,0.3
	C-374.3,193.3-372.6,191.1-372.6,188.1z"/>
<path class="st3" d="M-369.6,188.5c0.2,0.1,0.5,0.2,0.9,0.3c0.9,0.2,2.4,0.6,2.4,2.6v13.5c0,10.9,7.2,11.4,8.6,11.4
	c4.7,0,10.5-3.5,10.5-7.6c0-1.1-0.7-2.4-1.1-2.4c-0.2,0-0.5,0.3-0.9,0.5c-0.7,0.5-1.5,1.1-2.6,1.1c-1.6,0-3.4-1-3.5-5.8v-11.2
	c0-1.1,0.8-2,1.8-2h4.4c0.7,0,1.3-0.8,1.3-1.8v-1.6c0-1-0.6-1.8-1.4-1.8h-4.4c-1,0-1.8-0.9-1.8-2v-6.1c0-0.6-0.4-1.1-0.7-1.1
	c-0.2,0-0.5,0-0.7,0c-0.2,0-0.4,0-0.6,0c-0.6,0-1.3,0-1.9,0.2c-1.6,0.5-2.8,2-4,3.6c-1.5,2-3.2,3.6-5.2,4.8l-0.1,0.1
	c-1.7,1-2.9,1.9-2.5,3.7C-370.8,187.7-369.9,188.3-369.6,188.5z"/>
<path class="st3" d="M-328.2,216.3c8.1,0,16.7-5.9,16.8-16.8c-0.1-10.9-8.7-16.8-16.8-16.8c-8.1,0-16.7,5.9-16.8,16.8
	C-345,210.4-336.3,216.3-328.2,216.3z M-330.2,188.6c0.9-0.2,1.8-0.1,2.6,0.4c1.8,1.1,3.1,4.2,4,9.3v0c1.3,7.3,0.5,11.2-2.6,12
	c-0.3,0.1-0.6,0.1-0.9,0.1c-0.6,0-1.2-0.2-1.7-0.5c-1.8-1.1-3.1-4.2-4-9.3C-334.1,193.3-333.3,189.4-330.2,188.6z"/>
<path class="st3" d="M-308.9,189.1c1,0.7,2,1.5,2,4.3v14.8c0,2.3-0.8,3-1.4,3.6c-0.5,0.5-0.7,0.7-0.7,1.7c0,0.4,0.2,0.8,0.5,1.1
	c1.5,1.4,5.5,1.6,7,1.6c1.6,0.1,5.8,0,7.4-1.5c0.4-0.3,0.5-0.7,0.5-1.2c0-1-0.3-1.3-0.7-1.7c-0.6-0.6-1.4-1.4-1.4-3.6v-13.6
	c0-5.6,2.4-6.4,3.8-6.4c1.4,0,3.8,0.8,3.8,6.4v13.6c0,2.3-0.8,3-1.4,3.6c-0.5,0.5-0.8,0.7-0.8,1.7c0,0.4,0.2,0.8,0.5,1.2
	c1.5,1.4,5.6,1.6,7.1,1.6c1.6,0.1,5.8-0.1,7.3-1.6c0.3-0.3,0.5-0.7,0.5-1.2c0,0,0,0,0,0c0-1-0.3-1.3-0.7-1.7
	c-0.6-0.6-1.4-1.4-1.4-3.6V196c0-6.1-1.8-13.4-10.3-13.4c-3.5,0-6.2,1.4-8.3,4.3c-0.2,0.2-0.5,0.3-0.8,0.3c-0.3-0.1-0.5-0.3-0.5-0.6
	c-0.3-2.7-0.7-4-2-4c-1.3,0-5.4,1.3-6.8,1.9c-2.9,1.2-3.8,1.9-3.8,3.2C-309.7,188.6-309.5,188.8-308.9,189.1z"/>
<path class="st3" d="M-255.1,194.8c-11.8,0-17.6,3.7-17.6,11.2c0,4.8,2.7,8.6,7,9.8c1.9,0.5,4,0.6,6,0.1c1-0.2,1.9-0.6,2.8-1
	c0.3-0.2,0.6-0.4,1-0.7c0.7-0.6,1.6-1.2,2.6-1.2c0.9,0,1.3,0.7,1.8,1.3c0.7,1,1.6,2.1,4,2.1c3.6,0,7.7-3.8,7.7-7.3c0,0,0,0,0,0
	c0-0.4,0-0.5-0.1-0.6c-0.1,0-0.1,0-0.2,0c-1.6-0.1-2.6-0.9-2.9-5.1l0-0.3c0-0.5,0-1,0-1.5v-6.4c0-0.3,0-1.2-0.1-1.5
	c-0.5-7.7-4.9-11.1-14.1-11.1c-8.5,0-13.2,2.1-13.2,5.9c0,2.1,1.5,3.4,4.1,3.4c2.1,0,3.1-1.3,4.1-2.7c0.9-1.3,1.9-2.5,3.7-2.5
	c3.3,0,4,2.5,4.1,7.4c0,0.2-0.1,0.4-0.2,0.5C-254.7,194.8-254.9,194.8-255.1,194.8z M-254.1,199.7c-0.1,7.4-1.5,11.1-4.3,11.1
	c-1.9,0-3.2-1.9-3.2-4.7c0-4.5,2.4-7.4,6.4-7.6c0.3,0,0.6,0.1,0.8,0.3C-254.3,199.1-254.1,199.4-254.1,199.7z"/>
<path class="st3" d="M-415,242.6c0-3.9,3.5-7.3,10.7-7.3c15,0,11.8,14.7,18.6,14.7c6.9,0,4.7-10.7,3.4-14.7
	c-0.7-2.3-1.8-5.4-3.9-6.7c-1.8-1.1-4.1-0.6-6.2-0.3c-5,0.7-10-0.5-15-0.5c-17.6,0-29.7,9.9-29.7,23.5c0,25.5,38.2,16.7,38.2,29.2
	c0,4-4,8.4-11.8,8.4c-16.4,0-14.7-13.6-23-13.6c-5.5,0-3.3,5.8-2.3,9.2c0.5,1.9,1.1,3.8,1.7,5.7c0.2,0.8,0.5,1.6,1,2.2
	c0.8,0.9,2,1.3,3.2,1.6c5.1,1.3,10.2,2.8,15.4,3.6c1.8,0.2,3.6,0.4,5.5,0.4c3.3,0,6.5-0.4,9.6-1.1c3.7-0.8,7.2-2.2,10.5-4.1
	c7.4-4.3,12.3-11.7,12.3-20.5C-376.9,248.3-415,256.2-415,242.6z"/>
<path class="st3" d="M-321.6,229c-0.2,0-0.5,0-0.8,0c-0.1,0-0.2,0-0.2,0c-3.3,0-12.6-0.2-12.6,5.4c0,5.2,6.9,1.5,6.9,11.1
	c0,0.1,0,0.3,0,0.5c0,2.5,0,5.1,0,7.6c0,3.5,0,10.4,0,10.4s0.1,7.3-0.9,10.8c0,0-1.3,9.2-8.8,9.6c-7.3-0.3-10.9-6.3-10.9-17.4v-20.4
	c0.4-10.9,6.2-4.9,6.2-11.4c0-3.5-3.8-6.2-16.8-6.2c-0.2,0-0.4,0-0.6,0c-0.1,0-0.3,0-0.4,0c-0.1,0-0.1,0-0.2,0
	c-15.3,0.2-15.7,5-15.7,6.2c0,4.1,5.1,4.1,4.7,9.7c0,14.1-2.7,33.5,8.1,44.6c5.8,5.9,14.1,8.1,22.2,8.3c0.1,0,0.1,0,0.2,0
	c0.1,0,0.2,0,0.3,0c0.2,0,0.4,0,0.7,0c26,0,26-25.5,26-25.5v-28.1c0-8.1,6-5.1,6-10.1C-308.3,229-318.6,229-321.6,229z"/>
<path class="st3" d="M-252,259.4v-0.2c6.7-2.9,12.2-7.7,12.2-15.4c0-8.2-7.8-15-20-15c-0.9,0-17.8,0-17.8,0c-7,0-14,0.1-20.9,1.1
	c-3.2,0.5-9.1,1.3-9.1,5.6c0,3.6,3.7,3.9,5.9,6.6c1,1.3,2,4,2,16v9.3c0,13.2-0.9,16.6-2.1,18c-1.5,1.8-4.7,2.3-4.7,5.3
	c0,6,11.9,6.1,15.9,6.1h31.9c14.5,0,23-7.8,23-19.3C-235.8,267.1-242.5,261.4-252,259.4z M-277.3,241L-277.3,241
	c0-1,0.1-2.2,1.1-2.6c1.4-0.6,2.8-1,4.7-1c4.8,0,9.6,2.6,10.1,7.4c0.6,6.8-5,9-13,9h-2.8V241z M-270.7,287.6h-2c-1.2,0-2.1-0.2-3-1
	c-0.9-0.8-1.7-1.6-1.7-2.7v-18.3h4.6c10,0,14.1,3.7,14.4,10.8C-258.1,282.8-262.8,287.6-270.7,287.6z"/>
<g>
	<path class="st1" d="M-217.6-55.8c0,0,19.9,6.4,37.9,31.5s21.2,28.6,21.2,28.6s-20.1,47.6-77.3,73.3c0,0,22.2-16.9,22-30.2
		c-0.3-13.2-13-17.7-13-39.2S-200.4-31.7-217.6-55.8z"/>
	<circle class="st0" cx="-182.9" cy="-1.6" r="6.2"/>
	<circle class="st0" cx="-172.4" cy="-38.9" r="7.5"/>
	<circle class="st0" cx="-182.9" cy="-64.1" r="9"/>
	<g>
		<g>
			<path class="st4" d="M-416.5-38c-8.1,0-16.7,5.9-16.8,16.8c0.1,10.9,8.7,16.8,16.8,16.8c8.1,0,16.7-5.9,16.8-16.8
				C-399.7-32.1-408.4-38-416.5-38z M-414.5-10.3c-0.3,0.1-0.6,0.1-0.9,0.1c-0.6,0-1.2-0.2-1.7-0.5c-1.8-1.1-3.1-4.2-4-9.3
				c-1.3-7.3-0.5-11.2,2.6-12c0.9-0.2,1.8-0.1,2.6,0.4c1.8,1.1,3.1,4.2,4,9.3v0C-410.6-15.1-411.4-11.2-414.5-10.3z"/>
			<path class="st4" d="M-376.7-38c-3.1,0-5.5,3.1-6.7,5.9c-0.1,0.3-0.4,0.4-0.7,0.4h-0.1c-0.4,0-0.7-0.3-0.7-0.7
				c-0.3-3.8-1.1-5.7-2.6-5.7c-1.3,0-5.9,1.4-7.4,2.1c-2.7,1.1-3.1,1.8-3.1,2.9c0,1,0.4,1.3,1.2,1.9c1.1,0.8,2.7,1.9,2.8,5.7l0,1.6
				v7c-0.1,2.4-0.2,4-0.5,5c-0.3,1.1-1.1,1.7-1.8,2.2c-0.8,0.6-1.2,0.9-1.2,1.7c0,0.8,0.3,1.5,0.8,2c1.8,1.8,6.1,1.8,8.2,1.7l0.5,0
				l0.5,0c1.8,0,5.5,0,7.1-1.5c0.5-0.5,0.8-1.2,0.8-2c0-0.9-0.4-1.2-1.2-1.8c-0.7-0.4-1.5-1-1.8-2.2c-0.1-0.5-0.2-1.1-0.2-1.7l0-9.6
				c0-3.5,1.5-5,3-5c0.7,0,1.3,0.2,1.9,0.4c0.5,0.2,1,0.3,1.5,0.3c2.3,0,4-2.2,4-5.2C-372.6-35.7-374.4-38-376.7-38z"/>
			<path class="st4" d="M-369.6-32.1c0.2,0.1,0.5,0.2,0.9,0.3c0.9,0.2,2.4,0.6,2.4,2.6v13.5c0,10.9,7.2,11.4,8.6,11.4
				c4.7,0,10.5-3.5,10.5-7.6c0-1.1-0.7-2.4-1.1-2.4c-0.2,0-0.5,0.3-0.9,0.5c-0.7,0.5-1.5,1.1-2.6,1.1c-1.6,0-3.4-1-3.5-5.8v-11.2
				c0-1.1,0.8-2,1.8-2h4.4c0.7,0,1.3-0.8,1.3-1.8v-1.6c0-1-0.6-1.8-1.4-1.8h-4.4c-1,0-1.8-0.9-1.8-2v-6.1c0-0.6-0.4-1.1-0.7-1.1
				c-0.2,0-0.5,0-0.7,0c-0.2,0-0.4,0-0.6,0c-0.6,0-1.3,0-1.9,0.2c-1.6,0.5-2.8,2-4,3.6c-1.5,2-3.2,3.6-5.2,4.8l-0.1,0.1
				c-1.7,1-2.9,1.9-2.5,3.7C-370.8-32.9-369.9-32.3-369.6-32.1z"/>
			<path class="st4" d="M-328.2-38c-8.1,0-16.7,5.9-16.8,16.8c0.1,10.9,8.7,16.8,16.8,16.8c8.1,0,16.7-5.9,16.8-16.8
				C-311.5-32.1-320.1-38-328.2-38z M-326.2-10.3c-0.3,0.1-0.6,0.1-0.9,0.1c-0.6,0-1.2-0.2-1.7-0.5c-1.8-1.1-3.1-4.2-4-9.3
				c-1.3-7.3-0.5-11.2,2.6-12c0.9-0.2,1.8-0.1,2.6,0.4c1.8,1.1,3.1,4.2,4,9.3v0C-322.4-15.1-323.2-11.2-326.2-10.3z"/>
			<path class="st4" d="M-275.8-8.7c-0.6-0.6-1.4-1.4-1.4-3.6v-12.3c0-6.1-1.8-13.4-10.3-13.4c-3.5,0-6.2,1.4-8.3,4.3
				c-0.2,0.2-0.5,0.3-0.8,0.3c-0.3-0.1-0.5-0.3-0.5-0.6c-0.3-2.7-0.7-4-2-4c-1.3,0-5.4,1.3-6.8,1.9c-2.9,1.2-3.8,1.9-3.8,3.2
				c0,0.9,0.3,1.1,0.8,1.4c1,0.7,2,1.5,2,4.3v14.8c0,2.3-0.8,3-1.4,3.6c-0.5,0.5-0.7,0.7-0.7,1.7c0,0.4,0.2,0.8,0.5,1.1
				c1.5,1.4,5.5,1.6,7,1.6c1.6,0.1,5.8,0,7.4-1.5c0.4-0.3,0.5-0.7,0.5-1.2c0-1-0.3-1.3-0.7-1.7c-0.6-0.6-1.4-1.4-1.4-3.6V-26
				c0-5.6,2.4-6.4,3.8-6.4s3.8,0.8,3.8,6.4v13.6c0,2.3-0.8,3-1.4,3.6c-0.5,0.5-0.8,0.7-0.8,1.7c0,0.4,0.2,0.8,0.5,1.2
				c1.5,1.4,5.6,1.6,7.1,1.6c1.6,0.1,5.8-0.1,7.3-1.6c0.3-0.3,0.5-0.7,0.5-1.2c0,0,0,0,0,0C-275.1-8-275.4-8.3-275.8-8.7z"/>
			<path class="st4" d="M-240.1-12.1c-1.6-0.1-2.6-0.9-2.9-5.1l0-0.3c0-0.5,0-1,0-1.5v-6.4c0-0.3,0-1.2-0.1-1.5
				c-0.5-7.7-4.9-11.1-14.1-11.1c-8.5,0-13.2,2.1-13.2,5.9c0,2.1,1.5,3.4,4.1,3.4c2.1,0,3.1-1.3,4.1-2.7c0.9-1.3,1.9-2.5,3.7-2.5
				c3.3,0,4,2.5,4.1,7.4c0,0.2-0.1,0.4-0.2,0.5c-0.1,0.1-0.3,0.2-0.5,0.2c-11.8,0-17.6,3.7-17.6,11.2c0,4.8,2.7,8.6,7,9.8
				c1.9,0.5,4,0.6,6,0.1c1-0.2,1.9-0.6,2.8-1c0.3-0.2,0.6-0.4,1-0.7c0.7-0.6,1.6-1.2,2.6-1.2c0.9,0,1.3,0.7,1.8,1.3
				c0.7,1,1.6,2.1,4,2.1c3.6,0,7.7-3.8,7.7-7.3c0,0,0,0,0,0c0-0.4,0-0.5-0.1-0.6C-239.9-12.1-240-12.1-240.1-12.1z M-258.4-9.8
				c-1.9,0-3.2-1.9-3.2-4.7c0-4.5,2.4-7.4,6.4-7.6c0.3,0,0.6,0.1,0.8,0.3c0.2,0.2,0.4,0.5,0.4,0.9C-254.2-13.5-255.6-9.8-258.4-9.8z
				"/>
		</g>
		<g>
			<path class="st0" d="M-376.9,51.7c0,8.7-4.9,16.1-12.3,20.5c-3.2,1.9-6.8,3.2-10.5,4.1c-3.1,0.7-6.4,1.1-9.6,1.1
				c-1.9,0-3.7-0.1-5.5-0.4c-5.2-0.7-10.3-2.3-15.4-3.6c-1.2-0.3-2.4-0.6-3.2-1.6c-0.5-0.6-0.7-1.4-1-2.2c-0.6-1.9-1.1-3.8-1.7-5.7
				c-1-3.4-3.2-9.2,2.3-9.2c8.4,0,6.6,13.6,23,13.6c7.7,0,11.8-4.4,11.8-8.4c0-12.5-38.2-3.7-38.2-29.2c0-13.6,12.1-23.5,29.7-23.5
				c5,0,10,1.2,15,0.5c2.1-0.3,4.4-0.8,6.2,0.3c2.2,1.3,3.2,4.4,3.9,6.7c1.3,4,3.5,14.7-3.4,14.7s-3.7-14.7-18.6-14.7
				c-7.3,0-10.7,3.3-10.7,7.3C-415,35.5-376.9,27.6-376.9,51.7z"/>
			<path class="st0" d="M-308.3,13.6c0,5-6,2-6,10.1v28.1c0,0,0,25.5-26,25.5c-0.2,0-0.4,0-0.7,0c-0.1,0-0.2,0-0.3,0
				c0,0-0.1,0-0.2,0c-8.1-0.2-16.4-2.3-22.2-8.3c-10.8-11.1-8.1-30.4-8.1-44.6c0.3-5.6-4.7-5.6-4.7-9.7c0-1.2,0.4-6,15.7-6.2
				c0.1,0,0.1,0,0.2,0c0.2,0,0.3,0,0.4,0c0.2,0,0.4,0,0.6,0c13,0,16.8,2.7,16.8,6.2c0,6.4-5.8,0.4-6.2,11.4v20.4
				c0,11.1,3.6,17,10.9,17.4c7.4-0.3,8.8-9.6,8.8-9.6c1.1-3.5,0.9-10.8,0.9-10.8s0-7,0-10.4c0-2.5,0-5,0-7.6c0-0.2,0-0.3,0-0.5
				c0-9.6-6.9-5.9-6.9-11.1c0-5.5,9.4-5.4,12.6-5.4c0.1,0,0.2,0,0.2,0c0.3,0,0.6,0,0.8,0C-318.6,8.4-308.3,8.4-308.3,13.6z"/>
			<path class="st0" d="M-235.8,56.8c0,11.5-8.5,19.3-23,19.3h-31.9c-4,0-15.9-0.1-15.9-6.1c0-3,3.2-3.5,4.7-5.3
				c1.1-1.3,2.1-4.8,2.1-18v-9.3c0-11.9-0.9-14.7-2-16c-2.2-2.7-5.9-3-5.9-6.6c0-4.3,5.9-5.1,9.1-5.6c6.9-1,14-1.1,20.9-1.1
				c0,0,16.9,0,17.8,0c12.2,0,20,6.8,20,15c0,7.7-5.5,12.5-12.2,15.4v0.2C-242.5,40.8-235.8,46.5-235.8,56.8z M-277.3,20.4v12.8h2.8
				c8,0,13.6-2.3,13-9c-0.5-4.8-5.3-7.4-10.1-7.4c-1.9,0-3.3,0.4-4.7,1C-277.2,18.2-277.3,19.4-277.3,20.4L-277.3,20.4z
				 M-258.3,55.7c-0.3-7.1-4.4-10.8-14.4-10.8h-4.6v18.3c0,1.2,0.8,2,1.7,2.7c1,0.8,1.9,1,3,1h2C-262.8,67-258.1,62.2-258.3,55.7z"
				/>
		</g>
	</g>
</g>
<g>
	<path class="st1" d="M62.2,24.5c0,0,19.9,6.4,37.9,31.5s21.2,28.6,21.2,28.6s-20.1,47.6-77.3,73.3c0,0,22.2-16.9,22-30.2
		c-0.3-13.2-13-17.7-13-39.2S79.4,48.6,62.2,24.5z"/>
	<circle class="st0" cx="96.9" cy="78.7" r="6.2"/>
	<circle class="st0" cx="107.4" cy="41.4" r="7.5"/>
	<circle class="st0" cx="96.9" cy="16.2" r="9"/>
</g>
</svg>
