<?xml version="1.0" encoding="utf-8"?>
<!-- Generator: Adobe Illustrator 26.5.3, SVG Export Plug-In . SVG Version: 6.00 Build 0)  -->
<svg version="1.1" id="Layer_1" xmlns="http://www.w3.org/2000/svg" xmlns:xlink="http://www.w3.org/1999/xlink" x="0px" y="0px"
	 viewBox="0 0 320 180" style="enable-background:new 0 0 320 180;" xml:space="preserve">
<style type="text/css">
	.st0{fill:#FFCC2E;}
	.st1{fill:#233F91;}
	.st2{fill:#6EB7E5;}
</style>
<g>
	<path class="st0" d="M240.3,31.9c0,0,19.9,6.4,37.9,31.5c18,25.1,21.2,28.6,21.2,28.6s-20.1,47.6-77.3,73.3c0,0,22.2-16.9,22-30.2
		s-13-17.7-13-39.2S257.5,56,240.3,31.9z"/>
	<circle class="st1" cx="275" cy="86.1" r="6.2"/>
	<circle class="st1" cx="285.5" cy="48.9" r="7.5"/>
	<circle class="st1" cx="275" cy="23.6" r="9"/>
	<g>
		<g>
			<path class="st2" d="M41.5,49.7c-8.1,0-16.7,5.9-16.8,16.8c0.1,10.9,8.7,16.8,16.8,16.8c8.1,0,16.7-5.9,16.8-16.8
				C58.2,55.6,49.6,49.7,41.5,49.7z M43.5,77.4c-0.3,0.1-0.6,0.1-0.9,0.1c-0.6,0-1.2-0.2-1.7-0.5c-1.8-1.1-3.1-4.2-4-9.3
				c-1.3-7.3-0.5-11.2,2.6-12c0.9-0.2,1.8-0.1,2.6,0.4c1.8,1.1,3.1,4.2,4,9.3v0C47.4,72.6,46.5,76.6,43.5,77.4z"/>
			<path class="st2" d="M81.2,49.7c-3.1,0-5.5,3.1-6.7,5.9c-0.1,0.3-0.4,0.4-0.7,0.4h-0.1c-0.4,0-0.7-0.3-0.7-0.7
				c-0.3-3.8-1.1-5.7-2.6-5.7c-1.3,0-5.9,1.4-7.4,2.1c-2.7,1.1-3.1,1.8-3.1,2.9c0,1,0.4,1.3,1.2,1.9c1.1,0.8,2.7,1.9,2.8,5.7l0,1.6
				v7c-0.1,2.4-0.2,4-0.5,5c-0.3,1.1-1.1,1.7-1.8,2.2c-0.8,0.6-1.2,0.9-1.2,1.7c0,0.8,0.3,1.5,0.8,2c1.8,1.8,6.1,1.8,8.2,1.7l0.5,0
				l0.5,0c1.8,0,5.5,0,7.1-1.5c0.5-0.5,0.8-1.2,0.8-2c0-0.9-0.4-1.2-1.2-1.8c-0.7-0.4-1.5-1-1.8-2.2c-0.1-0.5-0.2-1.1-0.2-1.7l0-9.6
				c0-3.5,1.5-5,3-5c0.7,0,1.3,0.2,1.9,0.4c0.5,0.2,1,0.3,1.5,0.3c2.3,0,4-2.2,4-5.2C85.4,52.1,83.6,49.7,81.2,49.7z"/>
			<path class="st2" d="M88.4,55.6c0.2,0.1,0.5,0.2,0.9,0.3c0.9,0.2,2.4,0.6,2.4,2.6V72c0,10.9,7.2,11.4,8.6,11.4
				c4.7,0,10.5-3.5,10.5-7.6c0-1.1-0.7-2.4-1.1-2.4c-0.2,0-0.5,0.3-0.9,0.5c-0.7,0.5-1.5,1.1-2.6,1.1c-1.6,0-3.4-1-3.5-5.8V58
				c0-1.1,0.8-2,1.8-2h4.4c0.7,0,1.3-0.8,1.3-1.8v-1.6c0-1-0.6-1.8-1.4-1.8h-4.4c-1,0-1.8-0.9-1.8-2v-6.1c0-0.6-0.4-1.1-0.7-1.1
				c-0.2,0-0.5,0-0.7,0c-0.2,0-0.4,0-0.6,0c-0.6,0-1.3,0-1.9,0.2c-1.6,0.5-2.8,2-4,3.6c-1.5,2-3.2,3.6-5.2,4.8l-0.1,0.1
				c-1.7,1-2.9,1.9-2.5,3.7C87.2,54.8,88,55.4,88.4,55.6z"/>
			<path class="st2" d="M129.7,49.7c-8.1,0-16.7,5.9-16.8,16.8c0.1,10.9,8.7,16.8,16.8,16.8c8.1,0,16.7-5.9,16.8-16.8
				C146.4,55.6,137.8,49.7,129.7,49.7z M131.7,77.4c-0.3,0.1-0.6,0.1-0.9,0.1c-0.6,0-1.2-0.2-1.7-0.5c-1.8-1.1-3.1-4.2-4-9.3
				c-1.3-7.3-0.5-11.2,2.6-12c0.9-0.2,1.8-0.1,2.6,0.4c1.8,1.1,3.1,4.2,4,9.3v0C135.6,72.6,134.8,76.6,131.7,77.4z"/>
			<path class="st2" d="M182.1,79c-0.6-0.6-1.4-1.4-1.4-3.6V63.1c0-6.1-1.8-13.4-10.3-13.4c-3.5,0-6.2,1.4-8.3,4.3
				c-0.2,0.2-0.5,0.3-0.8,0.3c-0.3-0.1-0.5-0.3-0.5-0.6c-0.3-2.7-0.7-4-2-4c-1.3,0-5.4,1.3-6.8,1.9c-2.9,1.2-3.8,1.9-3.8,3.2
				c0,0.9,0.3,1.1,0.8,1.4c1,0.7,2,1.5,2,4.3v14.8c0,2.3-0.8,3-1.4,3.6c-0.5,0.5-0.7,0.7-0.7,1.7c0,0.4,0.2,0.8,0.5,1.1
				c1.5,1.4,5.5,1.6,7,1.6c1.6,0.1,5.8,0,7.4-1.5c0.4-0.3,0.5-0.7,0.5-1.2c0-1-0.3-1.3-0.7-1.7c-0.6-0.6-1.4-1.4-1.4-3.6V61.7
				c0-5.6,2.4-6.4,3.8-6.4s3.8,0.8,3.8,6.4v13.6c0,2.3-0.8,3-1.4,3.6c-0.5,0.5-0.8,0.7-0.8,1.7c0,0.4,0.2,0.8,0.5,1.2
				c1.5,1.4,5.6,1.6,7.1,1.6c1.6,0.1,5.8-0.1,7.3-1.6c0.3-0.3,0.5-0.7,0.5-1.2c0,0,0,0,0,0C182.9,79.7,182.6,79.4,182.1,79z"/>
			<path class="st2" d="M217.9,75.7c-1.6-0.1-2.6-0.9-2.9-5.1l0-0.3c0-0.5,0-1,0-1.5v-6.4c0-0.3,0-1.2-0.1-1.5
				c-0.5-7.7-4.9-11.1-14.1-11.1c-8.5,0-13.2,2.1-13.2,5.9c0,2.1,1.5,3.4,4.1,3.4c2.1,0,3.1-1.3,4.1-2.7c0.9-1.3,1.9-2.5,3.7-2.5
				c3.3,0,4,2.5,4.1,7.4c0,0.2-0.1,0.4-0.2,0.5c-0.1,0.1-0.3,0.2-0.5,0.2c-11.8,0-17.6,3.7-17.6,11.2c0,4.8,2.7,8.6,7,9.8
				c1.9,0.5,4,0.6,6,0.1c1-0.2,1.9-0.6,2.8-1c0.3-0.2,0.6-0.4,1-0.7c0.7-0.6,1.6-1.2,2.6-1.2c0.9,0,1.3,0.7,1.8,1.3
				c0.7,1,1.6,2.1,4,2.1c3.6,0,7.7-3.8,7.7-7.3c0,0,0,0,0,0c0-0.4,0-0.5-0.1-0.6C218,75.7,217.9,75.7,217.9,75.7z M199.5,77.9
				c-1.9,0-3.2-1.9-3.2-4.7c0-4.5,2.4-7.4,6.4-7.6c0.3,0,0.6,0.1,0.8,0.3c0.2,0.2,0.4,0.5,0.4,0.9C203.8,74.3,202.4,77.9,199.5,77.9
				z"/>
		</g>
		<g>
			<path class="st1" d="M81.1,139.4c0,8.7-4.9,16.1-12.3,20.5c-3.2,1.9-6.8,3.2-10.5,4.1c-3.1,0.7-6.4,1.1-9.6,1.1
				c-1.9,0-3.7-0.1-5.5-0.4c-5.2-0.7-10.3-2.3-15.4-3.6c-1.2-0.3-2.4-0.6-3.2-1.6c-0.5-0.6-0.7-1.4-1-2.2c-0.6-1.9-1.1-3.8-1.7-5.7
				c-1-3.4-3.2-9.2,2.3-9.2c8.4,0,6.6,13.6,23,13.6c7.7,0,11.8-4.4,11.8-8.4c0-12.5-38.2-3.7-38.2-29.2c0-13.6,12.1-23.5,29.7-23.5
				c5,0,10,1.2,15,0.5c2.1-0.3,4.4-0.8,6.2,0.3c2.2,1.3,3.2,4.4,3.9,6.7c1.3,4,3.5,14.7-3.4,14.7c-6.9,0-3.7-14.7-18.6-14.7
				c-7.3,0-10.7,3.3-10.7,7.3C42.9,123.2,81.1,115.3,81.1,139.4z"/>
			<path class="st1" d="M149.7,101.3c0,5-6,2-6,10.1v28.1c0,0,0,25.5-26,25.5c-0.2,0-0.4,0-0.7,0c-0.1,0-0.2,0-0.3,0
				c0,0-0.1,0-0.2,0c-8.1-0.2-16.4-2.3-22.2-8.3c-10.8-11.1-8.1-30.4-8.1-44.6c0.3-5.6-4.7-5.6-4.7-9.7c0-1.2,0.4-6,15.7-6.2
				c0.1,0,0.1,0,0.2,0c0.2,0,0.3,0,0.4,0c0.2,0,0.4,0,0.6,0c13,0,16.8,2.7,16.8,6.2c0,6.4-5.8,0.4-6.2,11.4v20.4
				c0,11.1,3.6,17,10.9,17.4c7.4-0.3,8.8-9.6,8.8-9.6c1.1-3.5,0.9-10.8,0.9-10.8s0-7,0-10.4c0-2.5,0-5,0-7.6c0-0.2,0-0.3,0-0.5
				c0-9.6-6.9-5.9-6.9-11.1c0-5.5,9.4-5.4,12.6-5.4c0.1,0,0.2,0,0.2,0c0.3,0,0.6,0,0.8,0C139.4,96.1,149.7,96.1,149.7,101.3z"/>
			<path class="st1" d="M222.2,144.5c0,11.5-8.5,19.3-23,19.3h-31.9c-4,0-15.9-0.1-15.9-6.1c0-3,3.2-3.5,4.7-5.3
				c1.1-1.3,2.1-4.8,2.1-18v-9.3c0-11.9-0.9-14.7-2-16c-2.2-2.7-5.9-3-5.9-6.6c0-4.3,5.9-5.1,9.1-5.6c6.9-1,14-1.1,20.9-1.1
				c0,0,16.9,0,17.8,0c12.2,0,20,6.8,20,15c0,7.7-5.5,12.5-12.2,15.4v0.2C215.4,128.5,222.2,134.2,222.2,144.5z M180.6,108.1v12.8
				h2.8c8,0,13.6-2.3,13-9c-0.5-4.8-5.3-7.4-10.1-7.4c-1.9,0-3.3,0.4-4.7,1C180.7,105.9,180.6,107.1,180.6,108.1L180.6,108.1z
				 M199.6,143.4c-0.3-7.1-4.4-10.8-14.4-10.8h-4.6V151c0,1.2,0.8,2,1.7,2.7c1,0.8,1.9,1,3,1h2C195.1,154.7,199.8,149.9,199.6,143.4
				z"/>
		</g>
	</g>
</g>
</svg>
