<?xml version="1.0" encoding="utf-8"?>
<!-- Generator: Adobe Illustrator 26.5.3, SVG Export Plug-In . SVG Version: 6.00 Build 0)  -->
<svg version="1.1" id="Layer_1" xmlns="http://www.w3.org/2000/svg" xmlns:xlink="http://www.w3.org/1999/xlink" x="0px" y="0px"
	 viewBox="0 0 320 180" style="enable-background:new 0 0 320 180;" xml:space="preserve">
<style type="text/css">
	.st0{fill:#FFCC2E;}
	.st1{fill:#233F91;}
	.st2{fill:none;}
	.st3{fill:#FFFFFF;}
	.st4{fill:#6EB7E5;}
</style>
<path class="st2" d="M185.2,132.6h-4.6V151c0,1.2,0.8,2,1.7,2.7c1,0.8,1.9,1,3,1h2c7.8,0,12.6-4.8,12.4-11.3
	C199.3,136.3,195.2,132.6,185.2,132.6z"/>
<path class="st2" d="M196.5,111.8c-0.5-4.8-5.3-7.4-10.1-7.4c-1.9,0-3.3,0.4-4.7,1c-1,0.5-1.1,1.7-1.1,2.6h0v12.8h2.8
	C191.5,120.9,197.1,118.6,196.5,111.8z"/>
<path class="st2" d="M196.3,73.2c0,2.8,1.3,4.7,3.2,4.7c2.8,0,4.2-3.6,4.3-11.1c0-0.3-0.1-0.7-0.4-0.9c-0.2-0.2-0.5-0.3-0.8-0.3
	C198.8,65.9,196.3,68.8,196.3,73.2z"/>
<path class="st2" d="M40.9,77c0.5,0.3,1.1,0.5,1.7,0.5c0.3,0,0.6,0,0.9-0.1c3-0.8,3.9-4.7,2.6-12v0c-0.9-5.1-2.2-8.2-4-9.3
	c-0.8-0.5-1.7-0.6-2.6-0.4c-3,0.8-3.9,4.7-2.6,12C37.8,72.8,39.1,75.9,40.9,77z"/>
<path class="st2" d="M129.1,77c0.5,0.3,1.1,0.5,1.7,0.5c0.3,0,0.6,0,0.9-0.1c3-0.8,3.9-4.7,2.6-12v0c-0.9-5.1-2.2-8.2-4-9.3
	c-0.8-0.5-1.7-0.6-2.6-0.4c-3,0.8-3.9,4.7-2.6,12C126,72.8,127.4,75.9,129.1,77z"/>
<path class="st3" d="M278.2,63.4c-18-25.1-37.9-31.5-37.9-31.5c17.2,24.1-9.3,42.6-9.3,64.1c0,21.4,12.7,25.9,13,39.2
	c0.3,13.2-22,30.2-22,30.2c57.2-25.7,77.3-73.3,77.3-73.3S296.2,88.6,278.2,63.4z M275,92.3c-3.4,0-6.2-2.8-6.2-6.2
	c0-3.4,2.8-6.2,6.2-6.2c3.4,0,6.2,2.8,6.2,6.2C281.2,89.5,278.4,92.3,275,92.3z"/>
<circle class="st3" cx="285.5" cy="48.9" r="7.5"/>
<ellipse transform="matrix(0.7071 -0.7071 0.7071 0.7071 63.8464 201.3729)" class="st3" cx="275" cy="23.6" rx="9" ry="9"/>
<path class="st3" d="M41.5,83.4c8.1,0,16.7-5.9,16.8-16.8c-0.1-10.9-8.7-16.8-16.8-16.8c-8.1,0-16.7,5.9-16.8,16.8
	C24.8,77.5,33.4,83.4,41.5,83.4z M39.5,55.7c0.9-0.2,1.8-0.1,2.6,0.4c1.8,1.1,3.1,4.2,4,9.3v0c1.3,7.3,0.5,11.2-2.6,12
	c-0.3,0.1-0.6,0.1-0.9,0.1c-0.6,0-1.2-0.2-1.7-0.5c-1.8-1.1-3.1-4.2-4-9.3C35.6,60.4,36.4,56.5,39.5,55.7z"/>
<path class="st3" d="M85.4,55.2c0-3.1-1.8-5.5-4.1-5.5c-3.1,0-5.5,3.1-6.7,5.9c-0.1,0.3-0.4,0.4-0.7,0.4h-0.1
	c-0.4,0-0.7-0.3-0.7-0.7c-0.3-3.8-1.1-5.7-2.6-5.7c-1.3,0-5.9,1.4-7.4,2.1c-2.7,1.1-3.1,1.8-3.1,2.9c0,1,0.4,1.3,1.2,1.9
	c1.1,0.8,2.7,1.9,2.8,5.7l0,1.6v7c-0.1,2.4-0.2,4-0.5,5c-0.3,1.1-1.1,1.7-1.8,2.2c-0.8,0.6-1.2,0.9-1.2,1.7c0,0.8,0.3,1.5,0.8,2
	c1.8,1.8,6.1,1.8,8.2,1.7l0.5,0l0.5,0c1.8,0,5.5,0,7.1-1.5c0.5-0.5,0.8-1.2,0.8-2c0-0.9-0.4-1.2-1.2-1.8c-0.7-0.4-1.5-1-1.8-2.2
	c-0.1-0.5-0.2-1.1-0.2-1.7l0-9.6c0-3.5,1.5-5,3-5c0.7,0,1.3,0.2,1.9,0.4c0.5,0.2,1,0.3,1.5,0.3C83.7,60.4,85.4,58.2,85.4,55.2z"/>
<path class="st3" d="M88.4,55.6c0.2,0.1,0.5,0.2,0.9,0.3c0.9,0.2,2.4,0.6,2.4,2.6V72c0,10.9,7.2,11.4,8.6,11.4
	c4.7,0,10.5-3.5,10.5-7.6c0-1.1-0.7-2.4-1.1-2.4c-0.2,0-0.5,0.3-0.9,0.5c-0.7,0.5-1.5,1.1-2.6,1.1c-1.6,0-3.4-1-3.5-5.8V58
	c0-1.1,0.8-2,1.8-2h4.4c0.7,0,1.3-0.8,1.3-1.8v-1.6c0-1-0.6-1.8-1.4-1.8h-4.4c-1,0-1.8-0.9-1.8-2v-6.1c0-0.6-0.4-1.1-0.7-1.1
	c-0.2,0-0.5,0-0.7,0c-0.2,0-0.4,0-0.6,0c-0.6,0-1.3,0-1.9,0.2c-1.6,0.5-2.8,2-4,3.6c-1.5,2-3.2,3.6-5.2,4.8l-0.1,0.1
	c-1.7,1-2.9,1.9-2.5,3.7C87.2,54.8,88,55.4,88.4,55.6z"/>
<path class="st3" d="M129.7,83.4c8.1,0,16.7-5.9,16.8-16.8c-0.1-10.9-8.7-16.8-16.8-16.8c-8.1,0-16.7,5.9-16.8,16.8
	C113,77.5,121.6,83.4,129.7,83.4z M127.7,55.7c0.9-0.2,1.8-0.1,2.6,0.4c1.8,1.1,3.1,4.2,4,9.3v0c1.3,7.3,0.5,11.2-2.6,12
	c-0.3,0.1-0.6,0.1-0.9,0.1c-0.6,0-1.2-0.2-1.7-0.5c-1.8-1.1-3.1-4.2-4-9.3C123.8,60.4,124.7,56.5,127.7,55.7z"/>
<path class="st3" d="M149,56.2c1,0.7,2,1.5,2,4.3v14.8c0,2.3-0.8,3-1.4,3.6c-0.5,0.5-0.7,0.7-0.7,1.7c0,0.4,0.2,0.8,0.5,1.1
	c1.5,1.4,5.5,1.6,7,1.6c1.6,0.1,5.8,0,7.4-1.5c0.4-0.3,0.5-0.7,0.5-1.2c0-1-0.3-1.3-0.7-1.7c-0.6-0.6-1.4-1.4-1.4-3.6V61.7
	c0-5.6,2.4-6.4,3.8-6.4c1.4,0,3.8,0.8,3.8,6.4v13.6c0,2.3-0.8,3-1.4,3.6c-0.5,0.5-0.8,0.7-0.8,1.7c0,0.4,0.2,0.8,0.5,1.2
	c1.5,1.4,5.6,1.6,7.1,1.6c1.6,0.1,5.8-0.1,7.3-1.6c0.3-0.3,0.5-0.7,0.5-1.2c0,0,0,0,0,0c0-1-0.3-1.3-0.7-1.7
	c-0.6-0.6-1.4-1.4-1.4-3.6V63.1c0-6.1-1.8-13.4-10.3-13.4c-3.5,0-6.2,1.4-8.3,4.3c-0.2,0.2-0.5,0.3-0.8,0.3
	c-0.3-0.1-0.5-0.3-0.5-0.6c-0.3-2.7-0.7-4-2-4c-1.3,0-5.4,1.3-6.8,1.9c-2.9,1.2-3.8,1.9-3.8,3.2C148.2,55.7,148.5,55.9,149,56.2z"/>
<path class="st3" d="M202.8,61.9c-11.8,0-17.6,3.7-17.6,11.2c0,4.8,2.7,8.6,7,9.8c1.9,0.5,4,0.6,6,0.1c1-0.2,1.9-0.6,2.8-1
	c0.3-0.2,0.6-0.4,1-0.7c0.7-0.6,1.6-1.2,2.6-1.2c0.9,0,1.3,0.7,1.8,1.3c0.7,1,1.6,2.1,4,2.1c3.6,0,7.7-3.8,7.7-7.3c0,0,0,0,0,0
	c0-0.4,0-0.5-0.1-0.6c-0.1,0-0.1,0-0.2,0c-1.6-0.1-2.6-0.9-2.9-5.1l0-0.3c0-0.5,0-1,0-1.5v-6.4c0-0.3,0-1.2-0.1-1.5
	c-0.5-7.7-4.9-11.1-14.1-11.1c-8.5,0-13.2,2.1-13.2,5.9c0,2.1,1.5,3.4,4.1,3.4c2.1,0,3.1-1.3,4.1-2.7c0.9-1.3,1.9-2.5,3.7-2.5
	c3.3,0,4,2.5,4.1,7.4c0,0.2-0.1,0.4-0.2,0.5C203.2,61.8,203,61.9,202.8,61.9z M203.8,66.8c-0.1,7.4-1.5,11.1-4.3,11.1
	c-1.9,0-3.2-1.9-3.2-4.7c0-4.5,2.4-7.4,6.4-7.6c0.3,0,0.6,0.1,0.8,0.3C203.7,66.2,203.8,66.5,203.8,66.8z"/>
<path class="st3" d="M42.9,109.6c0-3.9,3.5-7.3,10.7-7.3c15,0,11.8,14.7,18.6,14.7c6.9,0,4.7-10.7,3.4-14.7
	c-0.7-2.3-1.8-5.4-3.9-6.7c-1.8-1.1-4.1-0.6-6.2-0.3c-5,0.7-10-0.5-15-0.5c-17.6,0-29.7,9.9-29.7,23.5c0,25.5,38.2,16.7,38.2,29.2
	c0,4-4,8.4-11.8,8.4c-16.4,0-14.7-13.6-23-13.6c-5.5,0-3.3,5.8-2.3,9.2c0.5,1.9,1.1,3.8,1.7,5.7c0.2,0.8,0.5,1.6,1,2.2
	c0.8,0.9,2,1.3,3.2,1.6c5.1,1.3,10.2,2.8,15.4,3.6c1.8,0.2,3.6,0.4,5.5,0.4c3.3,0,6.5-0.4,9.6-1.1c3.7-0.8,7.2-2.2,10.5-4.1
	c7.4-4.3,12.3-11.7,12.3-20.5C81.1,115.3,42.9,123.2,42.9,109.6z"/>
<path class="st3" d="M136.3,96.1c-0.2,0-0.5,0-0.8,0c-0.1,0-0.2,0-0.2,0c-3.3,0-12.6-0.2-12.6,5.4c0,5.2,6.9,1.5,6.9,11.1
	c0,0.1,0,0.3,0,0.5c0,2.5,0,5.1,0,7.6c0,3.5,0,10.4,0,10.4s0.1,7.3-0.9,10.8c0,0-1.3,9.2-8.8,9.6c-7.3-0.3-10.9-6.3-10.9-17.4v-20.4
	c0.4-10.9,6.2-4.9,6.2-11.4c0-3.5-3.8-6.2-16.8-6.2c-0.2,0-0.4,0-0.6,0c-0.1,0-0.3,0-0.4,0c-0.1,0-0.1,0-0.2,0
	c-15.3,0.2-15.7,5-15.7,6.2c0,4.1,5.1,4.1,4.7,9.7c0,14.1-2.7,33.5,8.1,44.6c5.8,5.9,14.1,8.1,22.2,8.3c0.1,0,0.1,0,0.2,0
	c0.1,0,0.2,0,0.3,0c0.2,0,0.4,0,0.7,0c26,0,26-25.5,26-25.5v-28.1c0-8.1,6-5.1,6-10.1C149.7,96.1,139.4,96.1,136.3,96.1z"/>
<path class="st3" d="M205.9,126.5v-0.2c6.7-2.9,12.2-7.7,12.2-15.4c0-8.2-7.8-15-20-15c-0.9,0-17.8,0-17.8,0c-7,0-14,0.1-20.9,1.1
	c-3.2,0.5-9.1,1.3-9.1,5.6c0,3.6,3.7,3.9,5.9,6.6c1,1.3,2,4,2,16v9.3c0,13.2-0.9,16.6-2.1,18c-1.5,1.8-4.7,2.3-4.7,5.3
	c0,6,11.9,6.1,15.9,6.1h31.9c14.5,0,23-7.8,23-19.3C222.2,134.2,215.4,128.5,205.9,126.5z M180.6,108.1L180.6,108.1
	c0-1,0.1-2.2,1.1-2.6c1.4-0.6,2.8-1,4.7-1c4.8,0,9.6,2.6,10.1,7.4c0.6,6.8-5,9-13,9h-2.8V108.1z M187.3,154.7h-2c-1.2,0-2.1-0.2-3-1
	c-0.9-0.8-1.7-1.6-1.7-2.7v-18.3h4.6c10,0,14.1,3.7,14.4,10.8C199.8,149.9,195.1,154.7,187.3,154.7z"/>
</svg>
